<svg version="2" xmlns="http://www.w3.org/2000/svg" x="0px" y="0px" viewBox="0 0 1224 1224" style="enable-background:new 0 0 1224 1224;" xml:space="preserve">
<g>
	<path d="M1118,421H846V200c0-57-47-105-105-105H105C47,96,0,143,0,200v383
		c0,57,47,105,105,105h62l78,105c4,7,13,10,22,10s16-4,22-10
		l78-105h12v221c0,57,47,105,105,105H857l78,105c4,7,13,10,22,10
		s16-4,22-10l78-105h62c57,0,105-47,105-105V526
		C1224,468,1177,421,1118,421z M352,633c-9,0-16,4-22,10l-65,85l-65-85
		c-4-7-13-10-22-10H102c-28,0-50-22-50-50V200
		c0-28,22-50,50-50h636c28,0,50,22,50,50v249v134
		c0,28-22,50-50,50H405L352,633L352,633z M1170,909
		c0,28-22,50-50,50h-77c-9,0-16,4-22,10l-65,85l-65-85
		c-4-7-13-10-22-10H483c-28,0-50-22-50-50V688h308
		c21,0,40-6,56-16h206c15,0,26-12,26-26c0-15-12-26-26-26h-162
		c4-10,6-22,6-35v-106h272c28,0,50,22,50,50v381H1170z M1028,797
		c0,15-12,26-26,26h-401c-15,0-26-12-26-26s12-26,26-26h401
		C1016,770,1028,782,1028,797z M620,498h-399c-15,0-26-12-26-26
		s12-26,26-26h399c15,0,26,12,26,26C648,486,635,498,620,498z
		 M194,318c0-15,12-26,26-26H461c15,0,26,12,26,26
		c0,15-12,26-26,26H221C206,344,194,333,194,318z"/>
</g>
</svg>
